<svg width="793" height="150" viewBox="0 0 793 150" fill="none" xmlns="http://www.w3.org/2000/svg">
<path d="M361.698 0H419.5L351.132 149.083H267.225L199.168 0H256.659L303.896 102.805H314.772L361.698 0Z" fill="#ECE5CB"/>
<path d="M614.918 100.392H608.705L658.413 149.155H586.647L537.56 100.703C537.249 100.392 536.628 100.392 536.317 100.392H476.979V149.155H419.504V0.0720215H614.918C634.491 0.0720215 650.646 16.2226 650.646 35.7898V64.6745C650.646 84.2416 634.491 100.392 614.918 100.392ZM586.647 58.1522C590.996 58.1522 594.414 54.7357 594.414 50.3874C594.414 45.7286 590.996 42.3121 586.647 42.3121H476.979V58.1522H586.647Z" fill="#ECE5CB"/>
<path d="M735.306 0.0720215H792.681V149.155H714.528C693.749 149.155 676.071 134.246 672.35 114.058L661.185 51.9404C660.255 46.3498 655.293 42.3121 649.71 42.3121V35.4792H592.336V0.0720215H670.179C690.958 0.0720215 708.635 14.9803 712.357 35.4792L723.831 98.5287C724.142 101.013 726.623 102.877 729.104 102.877H735.306V0.0720215Z" fill="#ECE5CB"/>
<path d="M63.6387 44.4863C60.224 44.4863 57.4301 47.2816 57.4301 50.698V53.1827C57.4301 56.5992 60.224 59.3945 63.6387 59.3945H189.364C206.127 59.3945 220.097 73.0604 220.097 90.1428V118.717C220.097 135.489 206.127 149.155 189.364 149.155H0V105.051H156.148C159.562 105.051 162.356 102.256 162.356 98.8393V95.4228C162.356 92.6275 159.873 90.1428 157.079 90.1428H30.4224C13.659 90.1428 0 76.4769 0 59.3945V30.8203C0 14.0485 13.659 0.0720215 30.4224 0.0720215H255.251V44.4863H63.6387Z" fill="#ECE5CB"/>
</svg>
