<svg width="303" height="186" viewBox="0 0 303 186" fill="none" xmlns="http://www.w3.org/2000/svg">
<path d="M151.812 52.2634V0.211434C187.388 -1.76031 237.031 10.2423 262.597 28.5418C288.163 46.8413 324.957 85.3381 285.864 136.441C254.589 177.324 186.801 186.46 156.817 185.918V178.191C191.446 174.125 208.044 154.529 205.204 141.381C198.521 110.449 157.358 126.004 98.5156 111.364C51.4418 99.6524 52.6592 58.1373 59.1521 38.8438C39.2675 59.041 41.9729 89.4046 69.0268 111.364C90.6699 128.932 133.235 133.052 151.812 132.917V185.918C96.712 185.872 -10.6199 167.022 0.850989 91.9801C12.3218 16.9385 102.574 -0.466326 146.266 0.211434V7.39569C126.516 9.29342 99.733 18.7821 98.5156 35.5905C97.2981 52.399 116.101 64.5986 137.067 66.903C158.034 69.2074 191.581 64.5986 223.64 85.3381C249.287 101.93 249.476 130.658 246.365 142.948C262.597 111.695 259.312 99.7663 240.954 80.8649C223.413 62.8039 175.304 53.3478 151.812 52.2634Z" fill="#ECE5CB"/>
</svg>
